<svg xmlns="http://www.w3.org/2000/svg" width="23.618" height="23.604" viewBox="0 0 23.618 23.604">
  <path id="hogar_1_" data-name="hogar (1)" d="M22.753,8.925,15.288,1.46a4.928,4.928,0,0,0-6.959,0L.865,8.925A2.931,2.931,0,0,0,0,11.012v9.661a2.952,2.952,0,0,0,2.952,2.952H20.665a2.952,2.952,0,0,0,2.952-2.952V11.012A2.931,2.931,0,0,0,22.753,8.925ZM14.761,21.657h-5.9V17.786a2.952,2.952,0,1,1,5.9,0Zm6.888-.984a.984.984,0,0,1-.984.984H16.729V17.786a4.92,4.92,0,1,0-9.841,0v3.871H2.952a.984.984,0,0,1-.984-.984V11.012a.992.992,0,0,1,.288-.7L9.721,2.854a2.96,2.96,0,0,1,4.176,0l7.464,7.465a.992.992,0,0,1,.288.693Z" transform="translate(0 -0.021)" fill="#5a607f"/>
</svg>
