<svg xmlns="http://www.w3.org/2000/svg" width="23.603" height="21.637" viewBox="0 0 23.603 21.637">
  <path id="agregar-carpeta" d="M23.6,7.884v9.835a4.923,4.923,0,0,1-4.917,4.917H4.917A4.923,4.923,0,0,1,0,17.719V5.917A4.923,4.923,0,0,1,4.917,1H7.4a2.964,2.964,0,0,1,1.319.311l3.1,1.558a1,1,0,0,0,.44.1h6.42A4.923,4.923,0,0,1,23.6,7.884ZM1.967,5.917V6.9H21.456a2.95,2.95,0,0,0-2.769-1.967h-6.42a2.964,2.964,0,0,1-1.319-.311L7.843,3.07a1,1,0,0,0-.44-.1H4.917a2.95,2.95,0,0,0-2.95,2.95Zm19.67,11.8V8.868H1.967v8.851a2.95,2.95,0,0,0,2.95,2.95H18.686A2.95,2.95,0,0,0,21.636,17.719Z" transform="translate(0 -1)" fill="#5a607f"/>
</svg>
