<svg xmlns="http://www.w3.org/2000/svg" width="17.703" height="23.604" viewBox="0 0 17.703 23.604">
  <g id="_01_align_center" data-name="01 align center" transform="translate(0 0)">
    <path id="Trazado_1113" data-name="Trazado 1113" d="M20.7,23.835H18.736v-4.96a2.911,2.911,0,0,0-2.908-2.908H7.875a2.911,2.911,0,0,0-2.908,2.908v4.96H3v-4.96A4.881,4.881,0,0,1,7.875,14h7.952A4.881,4.881,0,0,1,20.7,18.875Z" transform="translate(-3 -0.231)" fill="#5a607f"/>
    <path id="Trazado_1114" data-name="Trazado 1114" d="M11.9,11.8a5.9,5.9,0,1,1,5.9-5.9A5.9,5.9,0,0,1,11.9,11.8Zm0-9.835A3.934,3.934,0,1,0,15.835,5.9,3.934,3.934,0,0,0,11.9,1.967Z" transform="translate(-3.049 0)" fill="#5a607f"/>
  </g>
</svg>
