<svg id="_00_General_01_Icons_02_Common_01_Settings" data-name="00 General / 01 Icons / 02 Common / 01 Settings" xmlns="http://www.w3.org/2000/svg" width="29" height="29" viewBox="0 0 29 29">
  <rect id="BG" width="29" height="29" fill="none"/>
  <path id="color" d="M18.824,20a1.179,1.179,0,0,1-.721-.247l-.111-.1L14.175,15.84a8.744,8.744,0,0,1-5.351,1.807,8.824,8.824,0,1,1,8.824-8.824,8.742,8.742,0,0,1-1.807,5.351l3.815,3.817A1.177,1.177,0,0,1,18.824,20Zm-10-17.647A6.47,6.47,0,1,0,13,13.77a1.175,1.175,0,0,1,.775-.776A6.47,6.47,0,0,0,8.823,2.353Z" transform="translate(4 4)" fill="#025fee"/>
</svg>
