<svg id="Folder_Secure_Small" data-name="Folder / Secure / Small" xmlns="http://www.w3.org/2000/svg" width="48" height="36.063" viewBox="0 0 48 36.063">
  <rect id="Base" width="28.278" height="28.278" transform="translate(19.722 5.635)" fill="none"/>
  <path id="Trazado_891" data-name="Trazado 891" d="M3,0H44.9a3,3,0,0,1,3,3V29.119a3,3,0,0,1-3,3H3a3,3,0,0,1-3-3V3A3,3,0,0,1,3,0Z" transform="translate(0 3.944)" fill="#02d6ee"/>
  <path id="Trazado_892" data-name="Trazado 892" d="M2,0H32.373a2,2,0,0,1,2,2v.817H0V2A2,2,0,0,1,2,0Z" transform="translate(6.762)" fill="#02d6ee"/>
</svg>
