<svg xmlns="http://www.w3.org/2000/svg" width="23.618" height="23.604" viewBox="0 0 23.618 23.604">
  <g id="_01_align_center" data-name="01 align center" transform="translate(-0.494 0.004)">
    <path id="Trazado_900" data-name="Trazado 900" d="M24,15.927,21.314,6.714A9.577,9.577,0,0,0,11.789,0,9.517,9.517,0,0,0,2.644,7.177l-2.076,8.9a2.843,2.843,0,0,0,.608,2.485,3.158,3.158,0,0,0,2.415,1.1H7.314A5.107,5.107,0,0,0,12.374,23.6a5.107,5.107,0,0,0,5.059-3.937h3.583A3.153,3.153,0,0,0,23.479,18.5,2.838,2.838,0,0,0,24,15.927Zm-11.625,5.7a3.091,3.091,0,0,1-2.907-1.966h5.815a3.091,3.091,0,0,1-2.907,1.966Zm9.463-4.321a1.044,1.044,0,0,1-.826.388H3.59a1.053,1.053,0,0,1-.805-.368.948.948,0,0,1-.2-.829L4.659,7.6A7.475,7.475,0,0,1,11.84,1.97a7.523,7.523,0,0,1,7.48,5.267L22,16.45a.939.939,0,0,1-.168.858Z" transform="translate(0 0)" fill="#5a607f"/>
  </g>
</svg>
